<svg id="visual" viewBox="0 0 900 600" width="900" height="600" xmlns="http://www.w3.org/2000/svg" xmlns:xlink="http://www.w3.org/1999/xlink" version="1.1"><g stroke-width="1" stroke-linejoin="bevel"><path d="M466 297L511 226L413 198Z" fill="#ffd100" stroke="#ffd100"></path><path d="M413 198L387 333L466 297Z" fill="#ffd100" stroke="#ffd100"></path><path d="M628 283L569 210L511 226Z" fill="#ffd200" stroke="#ffd200"></path><path d="M511 226L482 116L413 198Z" fill="#ffd600" stroke="#ffd600"></path><path d="M569 210L482 116L511 226Z" fill="#ffd100" stroke="#ffd100"></path><path d="M272 207L321 287L413 198Z" fill="#ffd400" stroke="#ffd400"></path><path d="M413 198L321 287L387 333Z" fill="#ffcc00" stroke="#ffcc00"></path><path d="M300 388L405 374L387 333Z" fill="#ffce00" stroke="#ffce00"></path><path d="M387 333L405 374L466 297Z" fill="#ffd600" stroke="#ffd600"></path><path d="M466 297L628 283L511 226Z" fill="#ffd600" stroke="#ffd600"></path><path d="M482 116L408 92L413 198Z" fill="#ffcd00" stroke="#ffcd00"></path><path d="M569 210L587 124L482 116Z" fill="#ffcc00" stroke="#ffcc00"></path><path d="M482 116L488 0L408 92Z" fill="#ffd200" stroke="#ffd200"></path><path d="M599 377L628 283L466 297Z" fill="#ffcc00" stroke="#ffcc00"></path><path d="M569 210L720 212L587 124Z" fill="#ffd200" stroke="#ffd200"></path><path d="M281 129L272 207L413 198Z" fill="#ffd400" stroke="#ffd400"></path><path d="M405 374L496 433L466 297Z" fill="#ffd300" stroke="#ffd300"></path><path d="M496 433L599 377L466 297Z" fill="#ffd100" stroke="#ffd100"></path><path d="M408 92L281 129L413 198Z" fill="#ffd400" stroke="#ffd400"></path><path d="M321 287L300 388L387 333Z" fill="#ffd000" stroke="#ffd000"></path><path d="M433 483L497 480L496 433Z" fill="#ffd400" stroke="#ffd400"></path><path d="M204 275L300 388L321 287Z" fill="#ffcc00" stroke="#ffcc00"></path><path d="M587 124L488 0L482 116Z" fill="#ffd100" stroke="#ffd100"></path><path d="M408 92L314 0L281 129Z" fill="#ffd200" stroke="#ffd200"></path><path d="M488 0L419 0L408 92Z" fill="#ffd100" stroke="#ffd100"></path><path d="M433 483L496 433L405 374Z" fill="#ffd500" stroke="#ffd500"></path><path d="M496 433L497 480L599 377Z" fill="#ffcc00" stroke="#ffcc00"></path><path d="M327 489L433 483L405 374Z" fill="#ffd500" stroke="#ffd500"></path><path d="M176 231L204 275L272 207Z" fill="#ffd400" stroke="#ffd400"></path><path d="M272 207L204 275L321 287Z" fill="#ffce00" stroke="#ffce00"></path><path d="M717 313L720 212L628 283Z" fill="#ffd400" stroke="#ffd400"></path><path d="M628 283L720 212L569 210Z" fill="#ffcf00" stroke="#ffcf00"></path><path d="M587 124L626 0L488 0Z" fill="#ffd000" stroke="#ffd000"></path><path d="M599 377L717 313L628 283Z" fill="#ffcd00" stroke="#ffcd00"></path><path d="M722 430L717 313L599 377Z" fill="#ffcf00" stroke="#ffcf00"></path><path d="M314 0L222 92L281 129Z" fill="#ffcf00" stroke="#ffcf00"></path><path d="M281 129L222 92L272 207Z" fill="#ffce00" stroke="#ffce00"></path><path d="M419 0L314 0L408 92Z" fill="#ffcc00" stroke="#ffcc00"></path><path d="M222 92L176 231L272 207Z" fill="#ffd500" stroke="#ffd500"></path><path d="M192 421L327 489L300 388Z" fill="#ffd400" stroke="#ffd400"></path><path d="M300 388L327 489L405 374Z" fill="#ffd400" stroke="#ffd400"></path><path d="M564 600L615 538L497 480Z" fill="#ffd200" stroke="#ffd200"></path><path d="M192 421L300 388L204 275Z" fill="#ffd200" stroke="#ffd200"></path><path d="M720 212L680 68L587 124Z" fill="#ffd200" stroke="#ffd200"></path><path d="M680 68L626 0L587 124Z" fill="#ffd600" stroke="#ffd600"></path><path d="M114 420L192 421L204 275Z" fill="#ffd200" stroke="#ffd200"></path><path d="M314 0L237 0L222 92Z" fill="#ffcf00" stroke="#ffcf00"></path><path d="M222 92L118 193L176 231Z" fill="#ffce00" stroke="#ffce00"></path><path d="M615 538L691 460L599 377Z" fill="#ffd300" stroke="#ffd300"></path><path d="M691 460L722 430L599 377Z" fill="#ffd400" stroke="#ffd400"></path><path d="M717 313L783 323L720 212Z" fill="#ffd600" stroke="#ffd600"></path><path d="M497 480L615 538L599 377Z" fill="#ffce00" stroke="#ffce00"></path><path d="M771 472L812 378L722 430Z" fill="#ffce00" stroke="#ffce00"></path><path d="M470 600L497 480L433 483Z" fill="#ffd200" stroke="#ffd200"></path><path d="M722 430L783 323L717 313Z" fill="#ffd200" stroke="#ffd200"></path><path d="M783 67L723 0L680 68Z" fill="#ffd100" stroke="#ffd100"></path><path d="M62 83L118 193L222 92Z" fill="#ffd300" stroke="#ffd300"></path><path d="M176 231L85 288L204 275Z" fill="#ffd400" stroke="#ffd400"></path><path d="M783 67L680 68L720 212Z" fill="#ffcd00" stroke="#ffcd00"></path><path d="M680 68L723 0L626 0Z" fill="#ffcc00" stroke="#ffcc00"></path><path d="M369 600L433 483L327 489Z" fill="#ffd600" stroke="#ffd600"></path><path d="M369 600L470 600L433 483Z" fill="#ffcf00" stroke="#ffcf00"></path><path d="M783 323L823 229L720 212Z" fill="#ffd400" stroke="#ffd400"></path><path d="M273 600L369 600L327 489Z" fill="#ffcd00" stroke="#ffcd00"></path><path d="M823 229L783 67L720 212Z" fill="#ffce00" stroke="#ffce00"></path><path d="M118 193L85 288L176 231Z" fill="#ffd000" stroke="#ffd000"></path><path d="M192 421L209 524L327 489Z" fill="#ffd600" stroke="#ffd600"></path><path d="M99 514L209 524L192 421Z" fill="#ffce00" stroke="#ffce00"></path><path d="M470 600L564 600L497 480Z" fill="#ffcf00" stroke="#ffcf00"></path><path d="M771 472L722 430L691 460Z" fill="#ffcd00" stroke="#ffcd00"></path><path d="M771 472L691 460L733 600Z" fill="#ffd600" stroke="#ffd600"></path><path d="M722 430L812 378L783 323Z" fill="#ffcc00" stroke="#ffcc00"></path><path d="M783 323L900 314L823 229Z" fill="#ffce00" stroke="#ffce00"></path><path d="M85 288L114 420L204 275Z" fill="#ffd000" stroke="#ffd000"></path><path d="M733 600L691 460L615 538Z" fill="#ffd200" stroke="#ffd200"></path><path d="M237 600L273 600L209 524Z" fill="#ffd600" stroke="#ffd600"></path><path d="M209 524L273 600L327 489Z" fill="#ffcf00" stroke="#ffcf00"></path><path d="M64 600L237 600L209 524Z" fill="#ffd300" stroke="#ffd300"></path><path d="M60 0L62 83L222 92Z" fill="#ffcf00" stroke="#ffcf00"></path><path d="M118 193L0 232L85 288Z" fill="#ffd400" stroke="#ffd400"></path><path d="M900 129L828 0L783 67Z" fill="#ffce00" stroke="#ffce00"></path><path d="M783 67L828 0L723 0Z" fill="#ffd100" stroke="#ffd100"></path><path d="M900 314L900 205L823 229Z" fill="#ffd600" stroke="#ffd600"></path><path d="M823 229L900 129L783 67Z" fill="#ffd400" stroke="#ffd400"></path><path d="M900 314L783 323L812 378Z" fill="#ffd600" stroke="#ffd600"></path><path d="M0 495L99 514L114 420Z" fill="#ffd600" stroke="#ffd600"></path><path d="M114 420L99 514L192 421Z" fill="#ffd300" stroke="#ffd300"></path><path d="M0 375L114 420L85 288Z" fill="#ffd400" stroke="#ffd400"></path><path d="M900 368L900 314L812 378Z" fill="#ffce00" stroke="#ffce00"></path><path d="M0 139L0 232L118 193Z" fill="#ffcc00" stroke="#ffcc00"></path><path d="M564 600L733 600L615 538Z" fill="#ffd100" stroke="#ffd100"></path><path d="M900 503L900 368L812 378Z" fill="#ffd300" stroke="#ffd300"></path><path d="M0 232L0 283L85 288Z" fill="#ffd100" stroke="#ffd100"></path><path d="M900 205L900 129L823 229Z" fill="#ffd300" stroke="#ffd300"></path><path d="M62 83L0 139L118 193Z" fill="#ffcf00" stroke="#ffcf00"></path><path d="M237 0L60 0L222 92Z" fill="#ffce00" stroke="#ffce00"></path><path d="M900 503L812 378L771 472Z" fill="#ffcf00" stroke="#ffcf00"></path><path d="M0 0L0 139L62 83Z" fill="#ffd200" stroke="#ffd200"></path><path d="M0 283L0 375L85 288Z" fill="#ffcc00" stroke="#ffcc00"></path><path d="M733 600L796 600L771 472Z" fill="#ffd200" stroke="#ffd200"></path><path d="M900 129L900 0L828 0Z" fill="#ffcf00" stroke="#ffcf00"></path><path d="M60 0L0 0L62 83Z" fill="#ffcd00" stroke="#ffcd00"></path><path d="M796 600L900 503L771 472Z" fill="#ffd100" stroke="#ffd100"></path><path d="M0 375L0 495L114 420Z" fill="#ffd200" stroke="#ffd200"></path><path d="M99 514L64 600L209 524Z" fill="#ffd500" stroke="#ffd500"></path><path d="M0 495L64 600L99 514Z" fill="#ffd300" stroke="#ffd300"></path><path d="M796 600L900 600L900 503Z" fill="#ffd200" stroke="#ffd200"></path><path d="M0 495L0 600L64 600Z" fill="#ffd200" stroke="#ffd200"></path></g></svg>