<svg id="visual" viewBox="0 0 900 600" width="900" height="600" xmlns="http://www.w3.org/2000/svg" xmlns:xlink="http://www.w3.org/1999/xlink" version="1.1"><g stroke-width="1" stroke-linejoin="bevel"><path d="M413 330L424 416L461 385Z" fill="#272729" stroke="#272729"></path><path d="M424 416L463 477L461 385Z" fill="#2c2c2e" stroke="#2c2c2e"></path><path d="M573 498L535 336L461 385Z" fill="#242426" stroke="#242426"></path><path d="M461 385L535 336L413 330Z" fill="#1f1f21" stroke="#1f1f21"></path><path d="M276 371L363 485L424 416Z" fill="#2c2c2e" stroke="#2c2c2e"></path><path d="M424 416L363 485L463 477Z" fill="#262628" stroke="#262628"></path><path d="M361 231L322 273L413 330Z" fill="#1f1f21" stroke="#1f1f21"></path><path d="M413 330L276 371L424 416Z" fill="#242426" stroke="#242426"></path><path d="M322 273L276 371L413 330Z" fill="#272729" stroke="#272729"></path><path d="M536 191L361 231L413 330Z" fill="#2c2c2e" stroke="#2c2c2e"></path><path d="M276 371L292 471L363 485Z" fill="#1f1f21" stroke="#1f1f21"></path><path d="M276 371L237 395L292 471Z" fill="#2c2c2e" stroke="#2c2c2e"></path><path d="M176 262L237 395L276 371Z" fill="#2a2a2c" stroke="#2a2a2c"></path><path d="M361 231L278 238L322 273Z" fill="#29292b" stroke="#29292b"></path><path d="M322 273L278 238L276 371Z" fill="#2a2a2c" stroke="#2a2a2c"></path><path d="M499 600L573 498L463 477Z" fill="#29292b" stroke="#29292b"></path><path d="M463 477L573 498L461 385Z" fill="#2c2c2e" stroke="#2c2c2e"></path><path d="M621 367L615 329L535 336Z" fill="#1c1c1e" stroke="#1c1c1e"></path><path d="M535 336L536 191L413 330Z" fill="#1c1c1e" stroke="#1c1c1e"></path><path d="M573 498L621 367L535 336Z" fill="#242426" stroke="#242426"></path><path d="M574 220L536 191L535 336Z" fill="#2a2a2c" stroke="#2a2a2c"></path><path d="M287 115L197 191L278 238Z" fill="#222224" stroke="#222224"></path><path d="M615 329L574 220L535 336Z" fill="#2c2c2e" stroke="#2c2c2e"></path><path d="M301 600L414 600L363 485Z" fill="#212123" stroke="#212123"></path><path d="M363 485L414 600L463 477Z" fill="#2a2a2c" stroke="#2a2a2c"></path><path d="M414 600L499 600L463 477Z" fill="#1f1f21" stroke="#1f1f21"></path><path d="M621 367L674 323L615 329Z" fill="#1c1c1e" stroke="#1c1c1e"></path><path d="M615 329L677 219L574 220Z" fill="#262628" stroke="#262628"></path><path d="M573 498L672 387L621 367Z" fill="#1e1e20" stroke="#1e1e20"></path><path d="M728 536L672 387L573 498Z" fill="#212123" stroke="#212123"></path><path d="M210 600L301 600L292 471Z" fill="#1f1f21" stroke="#1f1f21"></path><path d="M292 471L301 600L363 485Z" fill="#1c1c1e" stroke="#1c1c1e"></path><path d="M672 387L674 323L621 367Z" fill="#2a2a2c" stroke="#2a2a2c"></path><path d="M278 238L176 262L276 371Z" fill="#2a2a2c" stroke="#2a2a2c"></path><path d="M135 498L163 537L292 471Z" fill="#2a2a2c" stroke="#2a2a2c"></path><path d="M287 115L278 238L361 231Z" fill="#262628" stroke="#262628"></path><path d="M278 238L197 191L176 262Z" fill="#222224" stroke="#222224"></path><path d="M499 600L597 600L573 498Z" fill="#212123" stroke="#212123"></path><path d="M385 68L287 115L361 231Z" fill="#242426" stroke="#242426"></path><path d="M627 98L471 83L536 191Z" fill="#29292b" stroke="#29292b"></path><path d="M536 191L471 83L361 231Z" fill="#1c1c1e" stroke="#1c1c1e"></path><path d="M627 98L536 191L574 220Z" fill="#2c2c2e" stroke="#2c2c2e"></path><path d="M674 323L677 219L615 329Z" fill="#2a2a2c" stroke="#2a2a2c"></path><path d="M135 498L292 471L237 395Z" fill="#2c2c2e" stroke="#2c2c2e"></path><path d="M471 83L385 68L361 231Z" fill="#262628" stroke="#262628"></path><path d="M163 537L210 600L292 471Z" fill="#272729" stroke="#272729"></path><path d="M106 372L135 498L237 395Z" fill="#272729" stroke="#272729"></path><path d="M109 305L237 395L176 262Z" fill="#212123" stroke="#212123"></path><path d="M109 305L106 372L237 395Z" fill="#222224" stroke="#222224"></path><path d="M122 209L109 305L176 262Z" fill="#272729" stroke="#272729"></path><path d="M597 600L669 600L573 498Z" fill="#262628" stroke="#262628"></path><path d="M672 387L828 312L674 323Z" fill="#29292b" stroke="#29292b"></path><path d="M674 323L778 214L677 219Z" fill="#1c1c1e" stroke="#1c1c1e"></path><path d="M197 191L122 209L176 262Z" fill="#1f1f21" stroke="#1f1f21"></path><path d="M104 115L122 209L197 191Z" fill="#1f1f21" stroke="#1f1f21"></path><path d="M677 219L627 98L574 220Z" fill="#212123" stroke="#212123"></path><path d="M471 83L360 0L385 68Z" fill="#212123" stroke="#212123"></path><path d="M279 0L223 87L287 115Z" fill="#212123" stroke="#212123"></path><path d="M287 115L223 87L197 191Z" fill="#262628" stroke="#262628"></path><path d="M669 600L728 536L573 498Z" fill="#242426" stroke="#242426"></path><path d="M728 536L768 490L672 387Z" fill="#2c2c2e" stroke="#2c2c2e"></path><path d="M0 505L119 600L135 498Z" fill="#222224" stroke="#222224"></path><path d="M135 498L119 600L163 537Z" fill="#222224" stroke="#222224"></path><path d="M163 537L119 600L210 600Z" fill="#1f1f21" stroke="#1f1f21"></path><path d="M385 68L279 0L287 115Z" fill="#2c2c2e" stroke="#2c2c2e"></path><path d="M526 0L360 0L471 83Z" fill="#2c2c2e" stroke="#2c2c2e"></path><path d="M677 219L660 69L627 98Z" fill="#272729" stroke="#272729"></path><path d="M562 0L526 0L471 83Z" fill="#2a2a2c" stroke="#2a2a2c"></path><path d="M811 108L660 69L677 219Z" fill="#1c1c1e" stroke="#1c1c1e"></path><path d="M562 0L471 83L627 98Z" fill="#262628" stroke="#262628"></path><path d="M828 312L778 214L674 323Z" fill="#2a2a2c" stroke="#2a2a2c"></path><path d="M360 0L279 0L385 68Z" fill="#1f1f21" stroke="#1f1f21"></path><path d="M223 87L104 115L197 191Z" fill="#272729" stroke="#272729"></path><path d="M660 69L562 0L627 98Z" fill="#1c1c1e" stroke="#1c1c1e"></path><path d="M92 0L104 115L223 87Z" fill="#212123" stroke="#212123"></path><path d="M0 260L106 372L109 305Z" fill="#1f1f21" stroke="#1f1f21"></path><path d="M0 260L0 437L106 372Z" fill="#2a2a2c" stroke="#2a2a2c"></path><path d="M832 417L828 312L672 387Z" fill="#1f1f21" stroke="#1f1f21"></path><path d="M768 490L832 417L672 387Z" fill="#2a2a2c" stroke="#2a2a2c"></path><path d="M900 503L832 417L768 490Z" fill="#2c2c2e" stroke="#2c2c2e"></path><path d="M106 372L0 437L135 498Z" fill="#2c2c2e" stroke="#2c2c2e"></path><path d="M0 260L109 305L122 209Z" fill="#2a2a2c" stroke="#2a2a2c"></path><path d="M279 0L213 0L223 87Z" fill="#1f1f21" stroke="#1f1f21"></path><path d="M0 163L0 260L122 209Z" fill="#1f1f21" stroke="#1f1f21"></path><path d="M0 437L0 505L135 498Z" fill="#1f1f21" stroke="#1f1f21"></path><path d="M669 600L801 600L728 536Z" fill="#222224" stroke="#222224"></path><path d="M728 536L801 600L768 490Z" fill="#1e1e20" stroke="#1e1e20"></path><path d="M777 0L681 0L660 69Z" fill="#1f1f21" stroke="#1f1f21"></path><path d="M660 69L681 0L562 0Z" fill="#272729" stroke="#272729"></path><path d="M811 108L677 219L778 214Z" fill="#242426" stroke="#242426"></path><path d="M104 115L0 163L122 209Z" fill="#222224" stroke="#222224"></path><path d="M0 108L0 163L104 115Z" fill="#29292b" stroke="#29292b"></path><path d="M900 166L811 108L778 214Z" fill="#2a2a2c" stroke="#2a2a2c"></path><path d="M0 505L0 600L119 600Z" fill="#2c2c2e" stroke="#2c2c2e"></path><path d="M832 417L900 372L828 312Z" fill="#1e1e20" stroke="#1e1e20"></path><path d="M828 312L900 287L778 214Z" fill="#2a2a2c" stroke="#2a2a2c"></path><path d="M900 503L900 372L832 417Z" fill="#242426" stroke="#242426"></path><path d="M900 372L900 287L828 312Z" fill="#212123" stroke="#212123"></path><path d="M92 0L0 108L104 115Z" fill="#29292b" stroke="#29292b"></path><path d="M213 0L92 0L223 87Z" fill="#272729" stroke="#272729"></path><path d="M801 600L900 503L768 490Z" fill="#1e1e20" stroke="#1e1e20"></path><path d="M900 0L777 0L811 108Z" fill="#242426" stroke="#242426"></path><path d="M811 108L777 0L660 69Z" fill="#1e1e20" stroke="#1e1e20"></path><path d="M900 287L900 166L778 214Z" fill="#212123" stroke="#212123"></path><path d="M801 600L900 600L900 503Z" fill="#212123" stroke="#212123"></path><path d="M900 166L900 130L811 108Z" fill="#212123" stroke="#212123"></path><path d="M92 0L0 0L0 108Z" fill="#262628" stroke="#262628"></path><path d="M900 130L900 0L811 108Z" fill="#1f1f21" stroke="#1f1f21"></path></g></svg>